<svg width="70" height="69" viewBox="0 0 70 69" fill="none" xmlns="http://www.w3.org/2000/svg">
<path opacity="0.29" d="M40.9629 4.60019H41.2629V4.2002L40.9629 4.60019Z" fill="#EA501D"/>
<path d="M48.7618 16.6001L47.1618 13.7001L46.4618 12.5001L44.7618 9.5001L43.8618 7.9001L43.1618 6.7001C43.3618 6.4001 43.4618 6.0001 43.5618 5.6001C43.7618 4.5001 43.5618 3.2001 42.8618 2.2001C42.1618 1.1001 41.2618 0.500098 39.9618 0.200098C39.7618 0.100098 39.5618 0.100098 39.3618 0.100098C38.8618 0.100098 38.3618 0.100097 37.9618 0.300097C37.4618 0.400097 36.9618 0.600097 36.5618 0.900097C35.5618 1.6001 34.8618 2.5001 34.5618 3.8001C34.3618 4.9001 34.5618 6.2001 35.2618 7.2001C35.9618 8.2001 36.9618 8.9001 38.1618 9.2001C38.3618 9.3001 38.7618 9.3001 38.8618 9.3001L39.0618 9.7001L40.6618 12.5001L41.4618 14.0001L43.2618 17.3001L44.0618 18.8001H49.5618L48.7618 16.6001ZM41.2618 4.9001C41.0618 5.5001 40.8618 5.9001 40.3618 6.2001C40.1618 6.4001 39.9618 6.4001 39.6618 6.4001C39.3618 6.5001 39.0618 6.5001 38.7618 6.4001C38.2618 6.3001 37.7618 6.0001 37.4618 5.6001C37.2618 5.3001 37.1618 5.0001 37.1618 4.6001C37.1618 4.4001 37.1618 4.2001 37.2618 4.0001C37.3618 3.4001 37.6618 2.9001 38.0618 2.7001C38.4618 2.5001 38.7618 2.4001 39.1618 2.4001H39.5618C40.1618 2.6001 40.6618 2.8001 40.8618 3.3001C41.0618 3.6001 41.0618 3.9001 41.1618 4.2001V4.9001H41.2618Z" fill="#EA501D"/>
<path d="M26.5617 13.5002H23.1617H21.7617H18.2617H16.3617H14.9617C14.7617 13.2002 14.4617 12.9002 14.1617 12.6002C13.2617 11.8002 12.0617 11.4002 10.9617 11.5002C9.76172 11.6002 8.66172 12.1002 7.86172 13.0002C7.66172 13.2002 7.56172 13.3002 7.46172 13.5002C7.26172 13.9002 6.96172 14.4002 6.96172 14.8002C6.76172 15.3002 6.76172 15.8002 6.76172 16.3002C6.86172 17.5002 7.36172 18.6002 8.26172 19.4002C9.16172 20.2002 10.3617 20.6002 11.4617 20.5002C12.6617 20.4002 13.7617 19.8002 14.5617 19.0002C14.7617 18.8002 14.9617 18.5002 14.9617 18.4002H15.4617H18.6617H20.3617H24.0617H25.7617L28.4617 13.6002L26.5617 13.5002ZM12.6617 14.4002C13.0617 14.8002 13.3617 15.2002 13.3617 15.8002C13.3617 16.1002 13.3617 16.3002 13.2617 16.5002C13.1617 16.8002 13.0617 17.0002 12.8617 17.3002C12.5617 17.7002 12.0617 18.0002 11.4617 18.0002C11.0617 18.1002 10.7617 18.0002 10.4617 17.8002C10.3617 17.7002 10.0617 17.6002 9.96172 17.4002C9.46172 17.0002 9.26172 16.5002 9.26172 16.0002C9.26172 15.5002 9.36171 15.2002 9.56171 14.8002L9.76172 14.4002C10.1617 14.0002 10.6617 13.7002 11.1617 13.7002C11.5617 13.7002 11.7617 13.8002 12.0617 13.9002L12.6617 14.4002Z" fill="#fff"/>
<path d="M56.1617 36.8001L58.2617 34.1001L59.1617 33.0001L61.2617 30.2001L62.3617 28.7001L63.2617 27.6001C63.6617 27.6001 64.0617 27.6001 64.4617 27.5001C65.5617 27.3001 66.6617 26.6001 67.2617 25.6001C67.9617 24.6001 68.1617 23.4001 67.9617 22.2001C67.9617 21.9001 67.8617 21.8001 67.7617 21.6001C67.5617 21.1001 67.3617 20.7001 67.0617 20.4001C66.7617 20.0001 66.3617 19.6001 65.9617 19.4001C64.9617 18.8001 63.7617 18.5001 62.5617 18.7001C61.4617 18.9001 60.3617 19.6001 59.7617 20.6001C59.1617 21.6001 58.8617 22.9001 59.0617 24.0001C59.0617 24.3001 59.2617 24.6001 59.2617 24.7001L58.9617 25.1001L57.0617 27.6001L56.0617 28.9001L53.7617 31.9001L52.7617 33.2001L54.9617 38.2001L56.1617 36.8001ZM63.9617 25.2001C63.3617 25.3001 62.8617 25.2001 62.3617 24.9001C62.1617 24.7001 61.9617 24.6001 61.8617 24.4001C61.6617 24.1001 61.5617 23.9001 61.4617 23.6001C61.3617 23.1001 61.4617 22.5001 61.6617 22.1001C61.8617 21.7001 62.0617 21.6001 62.4617 21.4001C62.6617 21.3001 62.8617 21.2001 63.0617 21.2001C63.6617 21.0001 64.1617 21.2001 64.5617 21.4001C64.9617 21.7001 65.1617 21.9001 65.3617 22.3001L65.5617 22.7001C65.6617 23.3001 65.5617 23.8001 65.2617 24.3001C65.0617 24.6001 64.8617 24.8001 64.5617 25.0001L63.9617 25.2001Z" fill="#EA501D"/>
<path d="M41.8617 22.6001H36.2617L35.0617 20.6001L33.8617 18.4001L32.7617 16.5001L31.2617 13.6001L30.1617 11.7001L28.8617 9.4001H16.7617L19.0617 5.9001L19.8617 4.6001H31.8617L33.2617 7.2001L34.4617 9.4001L35.9617 12.0001L36.8617 13.6001L38.1617 16.1001L39.4617 18.4001L40.7617 20.7001L41.8617 22.6001Z" fill="#EA501D"/>
<path d="M29.0621 22.5L25.7621 27.1L25.5621 27.3H10.0621L8.56211 29.5L7.16211 31.9L5.76212 34L3.76212 37L2.66211 38.5L0.662109 32.5L0.862114 32.2L2.66211 29.5L4.16211 27.3L4.26212 27.2L5.86211 24.6L6.96211 22.9L7.16211 22.6L7.26212 22.5H29.0621Z" fill="#EA501D"/>
<path d="M59.6617 17.8001L58.8617 18.8001L56.6617 21.7001L54.4617 24.3001L54.0617 25.0001L51.4617 28.3001L49.8617 30.2001L46.8617 34.1001L45.4617 30.6001L44.8617 29.4001L44.7617 29.2001L52.1617 19.7001L53.0617 18.4001L53.4617 18.1001L53.8617 17.3001L52.4617 14.7001L47.5617 5.5001L47.4617 5.4001L47.0617 4.6001H52.2617L53.4617 6.7001L55.0617 9.5001L56.2617 11.6001L57.2617 13.3001L57.5617 13.9001L59.6617 17.8001Z" fill="#EA501D"/>
<path opacity="0.29" d="M29.2629 64.3H28.9629V64.7L29.2629 64.3Z" fill="#EA501D"/>
<path d="M21.3625 52.4002L22.9625 55.3002L23.6625 56.5002L25.3625 59.5002L26.2625 61.1002L26.9625 62.3002C26.7625 62.6002 26.6625 63.0002 26.5625 63.4002C26.3625 64.5002 26.5625 65.8002 27.2625 66.8002C27.9625 67.9002 28.8625 68.5002 30.1625 68.8002C30.3625 68.9002 30.5625 68.9002 30.7625 68.9002C31.2625 68.9002 31.7625 68.9002 32.1625 68.7002C32.6625 68.6002 33.1625 68.4002 33.5625 68.1002C34.5625 67.4002 35.2625 66.5002 35.5625 65.2002C35.7625 64.1002 35.5625 62.8002 34.8625 61.8002C34.1625 60.8002 33.1625 60.1002 31.9625 59.8002C31.7625 59.7002 31.3625 59.7002 31.2625 59.7002L31.0625 59.3002L29.4625 56.5002L28.6625 55.0002L26.8625 51.7002L26.0625 50.2002H20.5625L21.3625 52.4002ZM28.8625 64.1002C29.0625 63.5002 29.2625 63.1002 29.7625 62.8002C29.9625 62.6002 30.1625 62.6002 30.4625 62.6002C30.7625 62.5002 31.0625 62.5002 31.3625 62.6002C31.8625 62.7002 32.3625 63.0002 32.6625 63.4002C32.8625 63.7002 32.9625 64.0002 32.9625 64.4002C32.9625 64.6002 32.9625 64.8002 32.8625 65.0002C32.7625 65.6002 32.4625 66.1002 32.0625 66.3002C31.6625 66.5002 31.3625 66.6002 30.9625 66.6002H30.5625C29.9625 66.4002 29.4625 66.2002 29.2625 65.7002C29.0625 65.4002 29.0625 65.1002 28.9625 64.8002V64.1002H28.8625Z" fill="#EA501D"/>
<path d="M43.5621 55.4001H46.9621H48.3621H51.8621H53.7621H55.1621C55.3621 55.7001 55.6621 56.0001 55.9621 56.3001C56.8621 57.1001 58.0621 57.5001 59.1621 57.4001C60.3621 57.3001 61.4621 56.8001 62.2621 55.9001C62.4621 55.7001 62.5621 55.6001 62.6621 55.4001C62.8621 55.0001 63.1621 54.5001 63.1621 54.1001C63.3621 53.6001 63.3621 53.1001 63.3621 52.6001C63.2621 51.4001 62.7621 50.3001 61.8621 49.5001C60.9621 48.7001 59.7621 48.3001 58.6621 48.4001C57.4621 48.5001 56.3621 49.1001 55.5621 49.9001C55.3621 50.1001 55.1621 50.4001 55.1621 50.5001H54.6621H51.4621H49.7621H46.0621H44.3621L41.6621 55.3001L43.5621 55.4001ZM57.4621 54.5001C57.0621 54.1001 56.7621 53.7001 56.7621 53.1001C56.7621 52.8001 56.7621 52.6001 56.8621 52.4001C56.9621 52.1001 57.0621 51.9001 57.2621 51.6001C57.5621 51.2001 58.0621 50.9001 58.6621 50.9001C59.0621 50.8001 59.3621 50.9001 59.6621 51.1001C59.7621 51.2001 60.0621 51.3001 60.1621 51.5001C60.6621 51.9001 60.8621 52.4001 60.8621 52.9001C60.8621 53.4001 60.7621 53.7001 60.5621 54.1001L60.3621 54.5001C59.9621 54.9001 59.4621 55.2001 58.9621 55.2001C58.5621 55.2001 58.3621 55.1001 58.0621 55.0001L57.4621 54.5001Z" fill="#EA501D"/>
<path d="M13.9614 32.2001L11.8614 34.9001L10.9614 36L8.8614 38.8001L7.7614 40.3001L6.8614 41.4001C6.4614 41.4001 6.0614 41.4 5.6614 41.5C4.5614 41.7 3.4614 42.4001 2.8614 43.4001C2.1614 44.4001 1.9614 45.6001 2.1614 46.8001C2.1614 47.1001 2.2614 47.2001 2.3614 47.4001C2.5614 47.9001 2.7614 48.3 3.0614 48.6C3.3614 49 3.7614 49.4 4.1614 49.6C5.1614 50.2 6.3614 50.5001 7.5614 50.3001C8.6614 50.1001 9.7614 49.4001 10.3614 48.4001C10.9614 47.4001 11.2614 46.1 11.0614 45C11.0614 44.7 10.8614 44.4001 10.8614 44.3001L11.1614 43.9001L13.0614 41.4001L14.0614 40.1L16.3614 37.1L17.3614 35.8001L15.1614 30.8L13.9614 32.2001ZM6.1614 43.7C6.7614 43.6 7.2614 43.7 7.7614 44C7.9614 44.2 8.1614 44.3 8.2614 44.5C8.4614 44.8 8.5614 45.0001 8.6614 45.3001C8.7614 45.8001 8.6614 46.4001 8.4614 46.8001C8.2614 47.2001 8.0614 47.3 7.6614 47.5C7.4614 47.6 7.2614 47.7 7.0614 47.7C6.4614 47.9 5.9614 47.7 5.5614 47.5C5.1614 47.2 4.9614 47 4.7614 46.6L4.5614 46.2C4.4614 45.6 4.5614 45.1 4.8614 44.6C5.0614 44.3 5.2614 44.1001 5.5614 43.9001L6.1614 43.7Z" fill="#EA501D"/>
<path d="M28.3613 46.3H33.8613L35.0613 48.4L36.2613 50.6L37.3613 52.4L38.8613 55.3L39.9613 57.2L41.2613 59.6H53.3613L51.0613 63L50.2613 64.3H38.2613L36.8613 61.7L35.6613 59.6L34.2613 56.9L33.3613 55.3L31.9613 52.9L30.6613 50.6L29.3613 48.2L28.3613 46.3Z" fill="#EA501D"/>
<path d="M41.0625 46.4001L44.3625 41.8001L44.5625 41.6001H60.0625L61.5625 39.4001L63.0625 37.0001L64.3625 35.0001L66.3625 31.9001L67.4625 30.4001L69.4625 36.4001L69.2625 36.8001L67.5625 39.4001L65.9625 41.6001L65.8625 41.8001L64.2625 44.3001L63.1625 46.0001L62.9625 46.3001L62.8625 46.4001H41.0625Z" fill="#EA501D"/>
<path d="M10.4629 51.1001L11.2629 50.1001L13.4629 47.2001L15.6629 44.6001L16.0629 43.9001L18.6629 40.7001L20.2629 38.7001L23.2629 34.9001L24.7629 38.3001L25.2629 39.5001L25.3629 39.8001L17.9629 49.2001L17.0629 50.5001L16.6629 50.8001L16.2629 51.6001L17.6629 54.2001L22.5629 63.4001L22.6629 63.5001L23.0629 64.3001H17.8629L16.6629 62.2001L15.0629 59.4001L13.8629 57.4001L12.8629 55.6001L12.5629 55.0001L10.4629 51.1001Z" fill="#EA501D"/>
</svg>
