<?xml version="1.0" encoding="utf-8"?>
<!-- Generator: Adobe Illustrator 26.1.0, SVG Export Plug-In . SVG Version: 6.00 Build 0)  -->
<svg version="1.1" id="Layer_1" xmlns="http://www.w3.org/2000/svg" xmlns:xlink="http://www.w3.org/1999/xlink" x="0px" y="0px"
	 viewBox="0 0 270.3 153.6" enable-background="new 0 0 270.3 153.6" xml:space="preserve">
<g>
	<path opacity="0.29" fill="#EA501D" d="M142,35.1h0.3v-0.4L142,35.1z"/>
	<path fill="#EA501D" d="M149.8,47.1l-1.6-2.9l-0.7-1.2l-1.7-3l-0.9-1.6l-0.7-1.2c0.2-0.3,0.3-0.7,0.4-1.1c0.2-1.1,0-2.4-0.7-3.4
		c-0.7-1.1-1.6-1.7-2.9-2c-0.2-0.1-0.4-0.1-0.6-0.1c-0.5,0-1,0-1.4,0.2c-0.5,0.1-1,0.3-1.4,0.6c-1,0.7-1.7,1.6-2,2.9
		c-0.2,1.1,0,2.4,0.7,3.4c0.7,1,1.7,1.7,2.9,2c0.2,0.1,0.6,0.1,0.7,0.1l0.2,0.4l1.6,2.8l0.8,1.5l1.8,3.3l0.8,1.5h5.5L149.8,47.1z
		 M142.3,35.4c-0.2,0.6-0.4,1-0.9,1.3c-0.2,0.2-0.4,0.2-0.7,0.2c-0.3,0.1-0.6,0.1-0.9,0c-0.5-0.1-1-0.4-1.3-0.8
		c-0.2-0.3-0.3-0.6-0.3-1c0-0.2,0-0.4,0.1-0.6c0.1-0.6,0.4-1.1,0.8-1.3c0.4-0.2,0.7-0.3,1.1-0.3h0.4c0.6,0.2,1.1,0.4,1.3,0.9
		c0.2,0.3,0.2,0.6,0.3,0.9V35.4z"/>
	<path fill="#FFFFFF" d="M127.6,44l-3.4,0l-1.4,0l-3.5,0l-1.9,0l-1.4,0c-0.2-0.3-0.5-0.6-0.8-0.9c-0.9-0.8-2.1-1.2-3.2-1.1
		c-1.2,0.1-2.3,0.6-3.1,1.5c-0.2,0.2-0.3,0.3-0.4,0.5c-0.2,0.4-0.5,0.9-0.5,1.3c-0.2,0.5-0.2,1-0.2,1.5c0.1,1.2,0.6,2.3,1.5,3.1
		c0.9,0.8,2.1,1.2,3.2,1.1c1.2-0.1,2.3-0.7,3.1-1.5c0.2-0.2,0.4-0.5,0.4-0.6l0.5,0l3.2,0l1.7,0l3.7,0l1.7,0l2.7-4.8L127.6,44z
		 M113.7,44.9c0.4,0.4,0.7,0.8,0.7,1.4c0,0.3,0,0.5-0.1,0.7c-0.1,0.3-0.2,0.5-0.4,0.8c-0.3,0.4-0.8,0.7-1.4,0.7
		c-0.4,0.1-0.7,0-1-0.2c-0.1-0.1-0.4-0.2-0.5-0.4c-0.5-0.4-0.7-0.9-0.7-1.4c0-0.5,0.1-0.8,0.3-1.2l0.2-0.4c0.4-0.4,0.9-0.7,1.4-0.7
		c0.4,0,0.6,0.1,0.9,0.2L113.7,44.9z"/>
	<path fill="#EA501D" d="M157.2,67.3l2.1-2.7l0.9-1.1l2.1-2.8l1.1-1.5l0.9-1.1c0.4,0,0.8,0,1.2-0.1c1.1-0.2,2.2-0.9,2.8-1.9
		c0.7-1,0.9-2.2,0.7-3.4c0-0.3-0.1-0.4-0.2-0.6c-0.2-0.5-0.4-0.9-0.7-1.2c-0.3-0.4-0.7-0.8-1.1-1c-1-0.6-2.2-0.9-3.4-0.7
		c-1.1,0.2-2.2,0.9-2.8,1.9c-0.6,1-0.9,2.3-0.7,3.4c0,0.3,0.2,0.6,0.2,0.7l-0.3,0.4l-1.9,2.5l-1,1.3l-2.3,3l-1,1.3l2.2,5L157.2,67.3
		z M165,55.7c-0.6,0.1-1.1,0-1.6-0.3c-0.2-0.2-0.4-0.3-0.5-0.5c-0.2-0.3-0.3-0.5-0.4-0.8c-0.1-0.5,0-1.1,0.2-1.5
		c0.2-0.4,0.4-0.5,0.8-0.7c0.2-0.1,0.4-0.2,0.6-0.2c0.6-0.2,1.1,0,1.5,0.2c0.4,0.3,0.6,0.5,0.8,0.9l0.2,0.4c0.1,0.6,0,1.1-0.3,1.6
		c-0.2,0.3-0.4,0.5-0.7,0.7L165,55.7z"/>
	<polygon fill="#EA501D" points="142.9,53.1 137.3,53.1 136.1,51.1 134.9,48.9 133.8,47 132.3,44.1 131.2,42.2 129.9,39.9 
		117.8,39.9 120.1,36.4 120.9,35.1 132.9,35.1 134.3,37.7 135.5,39.9 137,42.5 137.9,44.1 139.2,46.6 140.5,48.9 141.8,51.2 	"/>
	<polygon fill="#EA501D" points="130.1,53 126.8,57.6 126.6,57.8 111.1,57.8 109.6,60 108.2,62.4 106.8,64.5 104.8,67.5 103.7,69 
		101.7,63 101.9,62.7 103.7,60 105.2,57.8 105.3,57.7 106.9,55.1 108,53.4 108.2,53.1 108.3,53 	"/>
	<polygon fill="#EA501D" points="160.7,48.3 159.9,49.3 157.7,52.2 155.5,54.8 155.1,55.5 152.5,58.8 150.9,60.7 147.9,64.6 
		146.5,61.1 145.9,59.9 145.8,59.7 153.2,50.2 154.1,48.9 154.5,48.6 154.9,47.8 153.5,45.2 148.6,36 148.5,35.9 148.1,35.1 
		153.3,35.1 154.5,37.2 156.1,40 157.3,42.1 158.3,43.8 158.6,44.4 	"/>
	<path opacity="0.29" fill="#EA501D" d="M130.3,94.8h-0.3v0.4L130.3,94.8z"/>
	<path fill="#EA501D" d="M122.4,82.9l1.6,2.9l0.7,1.2l1.7,3l0.9,1.6l0.7,1.2c-0.2,0.3-0.3,0.7-0.4,1.1c-0.2,1.1,0,2.4,0.7,3.4
		c0.7,1.1,1.6,1.7,2.9,2c0.2,0.1,0.4,0.1,0.6,0.1c0.5,0,1,0,1.4-0.2c0.5-0.1,1-0.3,1.4-0.6c1-0.7,1.7-1.6,2-2.9
		c0.2-1.1,0-2.4-0.7-3.4c-0.7-1-1.7-1.7-2.9-2c-0.2-0.1-0.6-0.1-0.7-0.1l-0.2-0.4l-1.6-2.8l-0.8-1.5l-1.8-3.3l-0.8-1.5h-5.5
		L122.4,82.9z M129.9,94.6c0.2-0.6,0.4-1,0.9-1.3c0.2-0.2,0.4-0.2,0.7-0.2c0.3-0.1,0.6-0.1,0.9,0c0.5,0.1,1,0.4,1.3,0.8
		c0.2,0.3,0.3,0.6,0.3,1c0,0.2,0,0.4-0.1,0.6c-0.1,0.6-0.4,1.1-0.8,1.3c-0.4,0.2-0.7,0.3-1.1,0.3h-0.4c-0.6-0.2-1.1-0.4-1.3-0.9
		c-0.2-0.3-0.2-0.6-0.3-0.9V94.6z"/>
	<path fill="#EA501D" d="M144.6,85.9l3.4,0l1.4,0l3.5,0l1.9,0l1.4,0c0.2,0.3,0.5,0.6,0.8,0.9c0.9,0.8,2.1,1.2,3.2,1.1
		c1.2-0.1,2.3-0.6,3.1-1.5c0.2-0.2,0.3-0.3,0.4-0.5c0.2-0.4,0.5-0.9,0.5-1.3c0.2-0.5,0.2-1,0.2-1.5c-0.1-1.2-0.6-2.3-1.5-3.1
		c-0.9-0.8-2.1-1.2-3.2-1.1c-1.2,0.1-2.3,0.7-3.1,1.5c-0.2,0.2-0.4,0.5-0.4,0.6l-0.5,0l-3.2,0l-1.7,0l-3.7,0l-1.7,0l-2.7,4.8
		L144.6,85.9z M158.5,85c-0.4-0.4-0.7-0.8-0.7-1.4c0-0.3,0-0.5,0.1-0.7c0.1-0.3,0.2-0.5,0.4-0.8c0.3-0.4,0.8-0.7,1.4-0.7
		c0.4-0.1,0.7,0,1,0.2c0.1,0.1,0.4,0.2,0.5,0.4c0.5,0.4,0.7,0.9,0.7,1.4c0,0.5-0.1,0.8-0.3,1.2l-0.2,0.4c-0.4,0.4-0.9,0.7-1.4,0.7
		c-0.4,0-0.6-0.1-0.9-0.2L158.5,85z"/>
	<path fill="#EA501D" d="M115,62.7l-2.1,2.7l-0.9,1.1l-2.1,2.8l-1.1,1.5l-0.9,1.1c-0.4,0-0.8,0-1.2,0.1c-1.1,0.2-2.2,0.9-2.8,1.9
		c-0.7,1-0.9,2.2-0.7,3.4c0,0.3,0.1,0.4,0.2,0.6c0.2,0.5,0.4,0.9,0.7,1.2c0.3,0.4,0.7,0.8,1.1,1c1,0.6,2.2,0.9,3.4,0.7
		c1.1-0.2,2.2-0.9,2.8-1.9c0.6-1,0.9-2.3,0.7-3.4c0-0.3-0.2-0.6-0.2-0.7l0.3-0.4l1.9-2.5l1-1.3l2.3-3l1-1.3l-2.2-5L115,62.7z
		 M107.2,74.2c0.6-0.1,1.1,0,1.6,0.3c0.2,0.2,0.4,0.3,0.5,0.5c0.2,0.3,0.3,0.5,0.4,0.8c0.1,0.5,0,1.1-0.2,1.5
		c-0.2,0.4-0.4,0.5-0.8,0.7c-0.2,0.1-0.4,0.2-0.6,0.2c-0.6,0.2-1.1,0-1.5-0.2c-0.4-0.3-0.6-0.5-0.8-0.9l-0.2-0.4
		c-0.1-0.6,0-1.1,0.3-1.6c0.2-0.3,0.4-0.5,0.7-0.7L107.2,74.2z"/>
	<polygon fill="#EA501D" points="129.4,76.8 134.9,76.8 136.1,78.9 137.3,81.1 138.4,82.9 139.9,85.8 141,87.7 142.3,90.1 
		154.4,90.1 152.1,93.5 151.3,94.8 139.3,94.8 137.9,92.2 136.7,90.1 135.3,87.4 134.4,85.8 133,83.4 131.7,81.1 130.4,78.7 	"/>
	<polygon fill="#EA501D" points="142.1,76.9 145.4,72.3 145.6,72.1 161.1,72.1 162.6,69.9 164.1,67.5 165.4,65.5 167.4,62.4 
		168.5,60.9 170.5,66.9 170.3,67.3 168.6,69.9 167,72.1 166.9,72.3 165.3,74.8 164.2,76.5 164,76.8 163.9,76.9 	"/>
	<polygon fill="#EA501D" points="111.5,81.6 112.3,80.6 114.5,77.7 116.7,75.1 117.1,74.4 119.7,71.2 121.3,69.2 124.3,65.4 
		125.8,68.8 126.3,70 126.4,70.3 119,79.7 118.1,81 117.7,81.3 117.3,82.1 118.7,84.7 123.6,93.9 123.7,94 124.1,94.8 118.9,94.8 
		117.7,92.7 116.1,89.9 114.9,87.9 113.9,86.1 113.6,85.5 	"/>
</g>
</svg>
