<?xml version="1.0" standalone="no"?>
<!DOCTYPE svg PUBLIC "-//W3C//DTD SVG 20010904//EN"
 "http://www.w3.org/TR/2001/REC-SVG-20010904/DTD/svg10.dtd">
<svg version="1.0" xmlns="http://www.w3.org/2000/svg"
 width="489.000000pt" height="184.000000pt" viewBox="0 0 489.000000 184.000000"
 preserveAspectRatio="xMidYMid meet">

<g transform="translate(0.000000,184.000000) scale(0.100000,-0.100000)"
fill="#000000" stroke="none">
<path d="M410 1591 l-375 -217 -2 -455 -2 -454 331 -190 c182 -104 356 -204
387 -221 l56 -31 385 223 385 222 3 449 2 448 -385 223 c-212 122 -391 222
-398 221 -6 0 -181 -98 -387 -218z m750 -63 l350 -202 0 -407 0 -406 -349
-202 c-191 -110 -354 -201 -361 -201 -6 0 -167 89 -356 198 l-344 197 3 414 2
413 345 199 c189 109 348 199 352 199 5 0 166 -91 358 -202z"/>
<path d="M767 936 c-37 -195 -70 -362 -73 -370 -5 -13 2 -16 35 -16 23 0 41 3
41 7 0 9 129 679 137 711 5 20 2 22 -34 22 l-39 0 -67 -354z"/>
<path d="M447 1077 l-187 -102 2 -59 3 -59 180 -100 c99 -54 186 -101 193
-104 9 -4 12 12 12 59 l0 63 -135 68 c-74 37 -135 70 -135 75 0 4 61 36 135
71 l135 64 0 63 c0 35 -3 64 -7 63 -5 0 -92 -46 -196 -102z"/>
<path d="M960 1114 l0 -65 138 -65 137 -66 -137 -69 -138 -69 0 -65 0 -66 93
51 c50 28 136 74 189 103 l98 52 0 57 c0 67 21 50 -212 176 l-168 90 0 -64z"/>
<path d="M1865 1626 c-55 -25 -110 -81 -131 -132 -8 -19 -14 -64 -14 -101 0
-82 24 -141 77 -189 l37 -34 -77 0 c-62 0 -77 -3 -77 -15 0 -13 36 -15 260
-15 224 0 260 2 260 15 0 11 -12 15 -47 15 l-47 0 34 29 35 29 -34 36 c-34 35
-35 36 -55 17 -35 -31 -62 -41 -114 -41 -118 0 -188 121 -132 230 42 81 154
103 239 47 l39 -26 27 35 c26 34 27 36 8 56 -58 66 -196 87 -288 44z"/>
<path d="M2394 1626 c-59 -27 -116 -90 -132 -145 -31 -100 -1 -215 72 -279
l37 -32 -81 0 c-64 0 -80 -3 -80 -15 0 -13 49 -15 380 -15 l380 0 0 155 c0 85
4 155 8 155 4 0 37 -58 72 -130 63 -128 65 -130 98 -130 33 0 34 1 100 138
l67 137 3 -162 2 -163 170 0 170 0 0 155 c0 85 3 155 8 155 4 0 35 -59 69
-130 61 -129 62 -130 95 -130 33 0 34 2 103 138 l70 137 3 -162 2 -163 200 0
c171 0 200 2 200 15 0 10 -10 15 -30 15 l-30 0 0 235 0 235 -50 0 -50 0 0
-235 0 -235 -70 0 -70 0 0 235 0 235 -71 0 -70 0 -65 -135 c-35 -74 -67 -135
-71 -135 -5 0 -36 60 -69 133 l-61 132 -72 3 -71 3 0 -236 0 -235 -70 0 -70 0
0 235 0 236 -71 -3 -71 -3 -61 -133 c-34 -72 -66 -131 -71 -129 -5 2 -37 62
-70 135 l-61 131 -72 1 -73 0 0 -235 0 -235 -115 0 -115 0 39 35 c56 50 81
110 81 190 0 76 -18 126 -63 174 -76 80 -203 104 -303 57z m186 -88 c58 -40
75 -72 75 -143 0 -71 -17 -103 -75 -142 -86 -59 -208 3 -226 114 -21 135 121
242 226 171z"/>
<path d="M4440 1595 l0 -45 70 0 70 0 0 -190 0 -190 -80 0 c-64 0 -80 -3 -80
-15 0 -13 31 -15 215 -15 184 0 215 2 215 15 0 12 -16 15 -85 15 l-85 0 2 188
3 187 73 3 72 3 0 44 0 45 -195 0 -195 0 0 -45z"/>
<path d="M4545 811 c-55 -25 -79 -63 -79 -127 0 -86 34 -118 163 -155 37 -10
74 -28 83 -39 30 -36 -2 -80 -56 -80 -33 0 -110 32 -137 56 -14 12 -19 10 -47
-26 l-32 -39 37 -26 38 -26 -79 3 -80 3 -47 65 c-26 36 -48 70 -48 76 -1 6 10
16 24 22 56 26 83 152 47 222 -31 62 -67 74 -234 79 l-148 3 0 -236 0 -236
-55 0 -55 0 0 35 0 35 -131 0 -130 0 3 53 3 52 113 3 112 3 0 44 0 45 -116 0
-115 0 3 53 3 52 123 3 122 3 0 44 0 45 -175 0 -175 0 0 -236 0 -235 -52 3
-52 3 -88 123 -89 123 98 107 98 107 -60 3 -60 4 -95 -101 c-52 -56 -98 -101
-102 -101 -5 0 -8 45 -8 100 l0 100 -50 0 -50 0 0 -235 0 -235 -42 0 -43 0
-100 235 -100 235 -51 0 -51 0 -100 -232 -101 -233 -41 -3 -41 -3 0 235 0 236
-73 0 -72 0 -61 -132 c-34 -73 -66 -134 -71 -135 -5 -2 -37 56 -71 129 l-61
133 -71 3 -70 3 0 -236 0 -235 -35 0 c-24 0 -35 -5 -35 -15 0 -12 16 -15 85
-15 l84 0 3 158 3 157 68 -132 c66 -131 68 -133 101 -133 33 0 34 2 94 130 34
71 66 130 72 130 6 0 10 -58 10 -155 l0 -155 138 0 138 0 23 55 23 55 111 0
112 0 21 -53 22 -52 141 -3 141 -3 0 74 c0 68 2 75 30 102 16 16 31 27 33 24
2 -2 37 -48 77 -101 l72 -98 384 0 384 0 0 80 0 80 48 0 47 0 54 -80 55 -80
303 0 c263 0 303 2 303 15 0 11 -11 15 -40 15 l-41 0 23 31 c18 24 23 44 23
90 0 52 -3 62 -31 90 -22 22 -60 41 -125 63 -80 26 -95 35 -97 54 -9 61 69 80
151 39 l46 -24 26 38 25 39 -25 16 c-70 46 -180 57 -250 25z m-324 -100 c29
-23 31 -81 5 -110 -20 -22 -108 -38 -151 -27 -24 6 -25 10 -25 75 0 37 3 71 7
74 3 4 37 7 74 7 50 0 72 -5 90 -19z m-1550 -111 c15 -36 25 -68 23 -72 -7
-11 -112 -10 -118 1 -8 12 47 141 58 138 5 -2 22 -32 37 -67z"/>
</g>
</svg>
